<svg width="384" height="107" viewBox="0 0 384 107" fill="none" xmlns="http://www.w3.org/2000/svg">
<g clip-path="url(#clip0_1832_51)">
<g filter="url(#filter0_d_1832_51)">
<path d="M64.6288 19.7076V64.7718H19.214V19.7076H64.6288ZM83.8428 0.641968H0V83.8374H83.8428V0.641968Z" fill="#8E09FF"/>
</g>
<path d="M109.168 106.139V26.0488H126.311V33.6512C128.078 28.524 134.794 24.988 143.63 24.988C151.76 24.988 158.652 27.8168 164.131 33.6512C169.61 39.4855 172.437 46.5575 172.437 54.8671C172.437 63.1766 169.61 70.4254 164.131 76.2598C158.652 81.9173 151.76 84.9229 143.63 84.9229C134.971 84.9229 128.078 81.3869 126.311 76.2598V105.962H109.168V106.139ZM150.876 65.2982C153.704 62.4694 155.118 58.9334 155.118 54.8671C155.118 50.8007 153.704 47.4415 150.876 44.6127C148.049 41.784 144.514 40.3695 140.449 40.3695C136.208 40.3695 132.673 41.784 129.669 44.6127C126.841 47.4415 125.251 50.8007 125.251 54.8671C125.251 58.9334 126.665 62.2926 129.669 65.2982C132.673 68.127 136.208 69.3646 140.449 69.3646C144.514 69.5414 147.872 68.127 150.876 65.2982Z" fill="white"/>
<path d="M181.094 84.0402V26.0501H198.237V34.0061C200.888 28.1717 207.073 24.8125 215.026 24.8125C216.263 24.8125 217.677 24.9893 219.444 25.1661V41.2548C217.677 40.9012 215.733 40.7244 213.789 40.7244C204.069 40.7244 198.237 46.2052 198.237 55.7524V84.0402H181.094Z" fill="white"/>
<path d="M277.592 33.2986C283.954 39.133 286.959 46.3817 286.959 55.0449C286.959 63.708 283.778 70.9568 277.592 76.9679C271.23 82.8023 263.631 85.8079 254.794 85.8079C245.781 85.8079 238.182 82.8023 231.996 76.9679C225.811 70.9568 222.63 63.708 222.63 55.0449C222.63 46.3817 225.811 39.133 231.996 33.2986C238.358 27.2874 245.958 24.2819 254.794 24.2819C263.631 24.2819 271.23 27.2874 277.592 33.2986ZM244.014 65.8296C246.841 68.6584 250.376 70.2496 254.617 70.2496C258.859 70.2496 262.394 68.8352 265.221 65.8296C268.049 62.824 269.639 59.2881 269.639 55.0449C269.639 50.8017 268.226 47.2657 265.221 44.4369C262.394 41.4314 258.859 40.017 254.617 40.017C250.376 40.017 246.841 41.4314 244.014 44.4369C241.186 47.2657 239.596 50.8017 239.596 55.0449C239.772 59.2881 241.186 63.0008 244.014 65.8296Z" fill="white"/>
<path d="M295.969 84.0402V26.0501H313.111V33.2989C315.232 28.1717 321.241 24.8125 328.133 24.8125C335.909 24.8125 341.211 27.9949 343.862 34.0061C347.043 27.9949 353.582 24.8125 363.126 24.8125C376.38 24.8125 383.626 33.8293 383.626 48.8572V84.0402H366.483V50.9788C366.483 44.2604 363.302 40.0172 357.824 40.0172C352.168 40.0172 348.104 44.7908 348.104 51.5092V84.0402H330.961V50.9788C330.961 44.2604 327.78 40.0172 322.301 40.0172C316.823 40.0172 312.758 44.7908 312.758 51.5092V84.0402H295.969V84.0402Z" fill="white"/>
</g>
<defs>
<filter id="filter0_d_1832_51" x="-7.99436" y="-7.35239" width="99.8315" height="99.1842" filterUnits="userSpaceOnUse" color-interpolation-filters="sRGB">
<feFlood flood-opacity="0" result="BackgroundImageFix"/>
<feColorMatrix in="SourceAlpha" type="matrix" values="0 0 0 0 0 0 0 0 0 0 0 0 0 0 0 0 0 0 127 0" result="hardAlpha"/>
<feOffset/>
<feGaussianBlur stdDeviation="3.99718"/>
<feColorMatrix type="matrix" values="0 0 0 0 0.00392157 0 0 0 0 0.00392157 0 0 0 0 0.105882 0 0 0 0.1 0"/>
<feBlend mode="normal" in2="BackgroundImageFix" result="effect1_dropShadow_1832_51"/>
<feBlend mode="normal" in="SourceGraphic" in2="effect1_dropShadow_1832_51" result="shape"/>
</filter>
<clipPath id="clip0_1832_51">
<rect width="384" height="105.642" fill="white" transform="translate(0 0.641968)"/>
</clipPath>
</defs>
</svg>
