<svg width="384" height="106" viewBox="0 0 384 106" fill="none" xmlns="http://www.w3.org/2000/svg">
<g clip-path="url(#clip0_1832_50)">
<path d="M64.6288 19.0656V64.1298H19.214V19.0656H64.6288ZM83.8428 0H0V83.1955H83.8428V0Z" fill="#8E09FF"/>
<path d="M109.168 105.497V25.4069H126.311V33.0092C128.078 27.882 134.794 24.3461 143.63 24.3461C151.76 24.3461 158.652 27.1748 164.131 33.0092C169.61 38.8436 172.437 45.9155 172.437 54.2251C172.437 62.5346 169.61 69.7834 164.131 75.6178C158.652 81.2754 151.76 84.2809 143.63 84.2809C134.971 84.2809 128.078 80.745 126.311 75.6178V105.32H109.168V105.497ZM150.876 64.6562C153.704 61.8274 155.118 58.2915 155.118 54.2251C155.118 50.1587 153.704 46.7996 150.876 43.9708C148.049 41.142 144.514 39.7276 140.449 39.7276C136.208 39.7276 132.673 41.142 129.669 43.9708C126.841 46.7996 125.251 50.1587 125.251 54.2251C125.251 58.2915 126.665 61.6506 129.669 64.6562C132.673 67.485 136.208 68.7226 140.449 68.7226C144.514 68.8994 147.872 67.485 150.876 64.6562Z" fill="black"/>
<path d="M181.094 83.3982V25.4081H198.237V33.3641C200.888 27.5297 207.073 24.1705 215.026 24.1705C216.263 24.1705 217.677 24.3474 219.444 24.5242V40.6129C217.677 40.2593 215.733 40.0825 213.789 40.0825C204.069 40.0825 198.237 45.5632 198.237 55.1104V83.3982H181.094Z" fill="black"/>
<path d="M277.592 32.6566C283.954 38.491 286.959 45.7398 286.959 54.4029C286.959 63.0661 283.778 70.3148 277.592 76.326C271.23 82.1603 263.631 85.1659 254.794 85.1659C245.781 85.1659 238.182 82.1603 231.996 76.326C225.811 70.3148 222.63 63.0661 222.63 54.4029C222.63 45.7398 225.811 38.491 231.996 32.6566C238.358 26.6455 245.958 23.6399 254.794 23.6399C263.631 23.6399 271.23 26.6455 277.592 32.6566ZM244.014 65.1877C246.841 68.0164 250.376 69.6076 254.617 69.6076C258.859 69.6076 262.394 68.1932 265.221 65.1877C268.049 62.1821 269.639 58.6461 269.639 54.4029C269.639 50.1597 268.226 46.6238 265.221 43.795C262.394 40.7894 258.859 39.375 254.617 39.375C250.376 39.375 246.841 40.7894 244.014 43.795C241.186 46.6238 239.596 50.1597 239.596 54.4029C239.772 58.6461 241.186 62.3589 244.014 65.1877Z" fill="black"/>
<path d="M295.969 83.3982V25.4081H313.111V32.6569C315.232 27.5297 321.241 24.1705 328.133 24.1705C335.909 24.1705 341.211 27.3529 343.862 33.3641C347.043 27.3529 353.582 24.1705 363.126 24.1705C376.38 24.1705 383.626 33.1873 383.626 48.2152V83.3982H366.483V50.3368C366.483 43.6184 363.302 39.3753 357.824 39.3753C352.168 39.3753 348.104 44.1488 348.104 50.8672V83.3982H330.961V50.3368C330.961 43.6184 327.78 39.3753 322.301 39.3753C316.823 39.3753 312.758 44.1488 312.758 50.8672V83.3982H295.969V83.3982Z" fill="black"/>
</g>
<defs>
<clipPath id="clip0_1832_50">
<rect width="384" height="105.642" fill="white"/>
</clipPath>
</defs>
</svg>
