<svg width="384" height="107" viewBox="0 0 384 107" fill="none" xmlns="http://www.w3.org/2000/svg">
<g clip-path="url(#clip0_1832_53)">
<g filter="url(#filter0_d_1832_53)">
<path d="M64.6288 19.9914V65.0556H19.214V19.9914H64.6288ZM83.8428 0.925781H0V84.1213H83.8428V0.925781Z" fill="white"/>
</g>
<path d="M109.168 106.423V26.3327H126.311V33.9351C128.078 28.8079 134.794 25.2719 143.63 25.2719C151.76 25.2719 158.652 28.1007 164.131 33.9351C169.61 39.7694 172.437 46.8414 172.437 55.1509C172.437 63.4605 169.61 70.7093 164.131 76.5436C158.652 82.2012 151.76 85.2068 143.63 85.2068C134.971 85.2068 128.078 81.6708 126.311 76.5436V106.246H109.168V106.423ZM150.876 65.5821C153.704 62.7533 155.118 59.2173 155.118 55.1509C155.118 51.0846 153.704 47.7254 150.876 44.8966C148.049 42.0678 144.514 40.6534 140.449 40.6534C136.208 40.6534 132.673 42.0678 129.669 44.8966C126.841 47.7254 125.251 51.0846 125.251 55.1509C125.251 59.2173 126.665 62.5765 129.669 65.5821C132.673 68.4109 136.208 69.6485 140.449 69.6485C144.514 69.8253 147.872 68.4109 150.876 65.5821Z" fill="white"/>
<path d="M181.094 84.3242V26.3341H198.237V34.29C200.888 28.4556 207.073 25.0964 215.026 25.0964C216.263 25.0964 217.677 25.2733 219.444 25.4501V41.5388C217.677 41.1852 215.733 41.0084 213.789 41.0084C204.069 41.0084 198.237 46.4891 198.237 56.0363V84.3242H181.094Z" fill="white"/>
<path d="M277.592 33.5825C283.954 39.4169 286.959 46.6657 286.959 55.3288C286.959 63.992 283.778 71.2407 277.592 77.2519C271.23 83.0863 263.631 86.0918 254.794 86.0918C245.781 86.0918 238.182 83.0863 231.996 77.2519C225.811 71.2407 222.63 63.992 222.63 55.3288C222.63 46.6657 225.811 39.4169 231.996 33.5825C238.358 27.5714 245.958 24.5658 254.794 24.5658C263.631 24.5658 271.23 27.5714 277.592 33.5825ZM244.014 66.1136C246.841 68.9424 250.376 70.5335 254.617 70.5335C258.859 70.5335 262.394 69.1191 265.221 66.1136C268.049 63.108 269.639 59.572 269.639 55.3288C269.639 51.0856 268.226 47.5497 265.221 44.7209C262.394 41.7153 258.859 40.3009 254.617 40.3009C250.376 40.3009 246.841 41.7153 244.014 44.7209C241.186 47.5497 239.596 51.0856 239.596 55.3288C239.772 59.572 241.186 63.2848 244.014 66.1136Z" fill="white"/>
<path d="M295.969 84.3242V26.3341H313.111V33.5828C315.232 28.4556 321.241 25.0964 328.133 25.0964C335.909 25.0964 341.211 28.2788 343.862 34.29C347.043 28.2788 353.582 25.0964 363.126 25.0964C376.38 25.0964 383.626 34.1132 383.626 49.1411V84.3242H366.483V51.2627C366.483 44.5443 363.302 40.3012 357.824 40.3012C352.168 40.3012 348.104 45.0748 348.104 51.7931V84.3242H330.961V51.2627C330.961 44.5443 327.78 40.3012 322.301 40.3012C316.823 40.3012 312.758 45.0748 312.758 51.7931V84.3242H295.969V84.3242Z" fill="white"/>
</g>
<defs>
<filter id="filter0_d_1832_53" x="-7.99436" y="-7.06858" width="99.8315" height="99.1842" filterUnits="userSpaceOnUse" color-interpolation-filters="sRGB">
<feFlood flood-opacity="0" result="BackgroundImageFix"/>
<feColorMatrix in="SourceAlpha" type="matrix" values="0 0 0 0 0 0 0 0 0 0 0 0 0 0 0 0 0 0 127 0" result="hardAlpha"/>
<feOffset/>
<feGaussianBlur stdDeviation="3.99718"/>
<feColorMatrix type="matrix" values="0 0 0 0 0.00392157 0 0 0 0 0.00392157 0 0 0 0 0.105882 0 0 0 0.1 0"/>
<feBlend mode="normal" in2="BackgroundImageFix" result="effect1_dropShadow_1832_53"/>
<feBlend mode="normal" in="SourceGraphic" in2="effect1_dropShadow_1832_53" result="shape"/>
</filter>
<clipPath id="clip0_1832_53">
<rect width="384" height="105.642" fill="white" transform="translate(0 0.925781)"/>
</clipPath>
</defs>
</svg>
