<svg width="384" height="106" viewBox="0 0 384 106" fill="none" xmlns="http://www.w3.org/2000/svg">
<g clip-path="url(#clip0_1832_52)">
<g filter="url(#filter0_d_1832_52)">
<path d="M64.6288 19.3495V64.4137H19.214V19.3495H64.6288ZM83.8428 0.283875H0V83.4793H83.8428V0.283875Z" fill="black"/>
</g>
<path d="M109.168 105.781V25.6908H126.311V33.2931C128.078 28.166 134.794 24.63 143.63 24.63C151.76 24.63 158.652 27.4588 164.131 33.2931C169.61 39.1275 172.437 46.1995 172.437 54.509C172.437 62.8186 169.61 70.0674 164.131 75.9017C158.652 81.5593 151.76 84.5649 143.63 84.5649C134.971 84.5649 128.078 81.0289 126.311 75.9017V105.604H109.168V105.781ZM150.876 64.9402C153.704 62.1114 155.118 58.5754 155.118 54.509C155.118 50.4427 153.704 47.0835 150.876 44.2547C148.049 41.4259 144.514 40.0115 140.449 40.0115C136.208 40.0115 132.673 41.4259 129.669 44.2547C126.841 47.0835 125.251 50.4427 125.251 54.509C125.251 58.5754 126.665 61.9346 129.669 64.9402C132.673 67.7689 136.208 69.0066 140.449 69.0066C144.514 69.1834 147.872 67.7689 150.876 64.9402Z" fill="black"/>
<path d="M181.094 83.6822V25.6921H198.237V33.6481C200.888 27.8137 207.073 24.4545 215.026 24.4545C216.263 24.4545 217.677 24.6313 219.444 24.8081V40.8969C217.677 40.5433 215.733 40.3665 213.789 40.3665C204.069 40.3665 198.237 45.8472 198.237 55.3944V83.6822H181.094Z" fill="black"/>
<path d="M277.592 32.9406C283.954 38.775 286.959 46.0238 286.959 54.6869C286.959 63.3501 283.778 70.5988 277.592 76.61C271.23 82.4443 263.631 85.4499 254.794 85.4499C245.781 85.4499 238.182 82.4443 231.996 76.61C225.811 70.5988 222.63 63.3501 222.63 54.6869C222.63 46.0238 225.811 38.775 231.996 32.9406C238.358 26.9295 245.958 23.9239 254.794 23.9239C263.631 23.9239 271.23 26.9295 277.592 32.9406ZM244.014 65.4717C246.841 68.3004 250.376 69.8916 254.617 69.8916C258.859 69.8916 262.394 68.4772 265.221 65.4717C268.049 62.4661 269.639 58.9301 269.639 54.6869C269.639 50.4437 268.226 46.9078 265.221 44.079C262.394 41.0734 258.859 39.659 254.617 39.659C250.376 39.659 246.841 41.0734 244.014 44.079C241.186 46.9078 239.596 50.4437 239.596 54.6869C239.772 58.9301 241.186 62.6429 244.014 65.4717Z" fill="black"/>
<path d="M295.969 83.6822V25.6921H313.111V32.9409C315.232 27.8137 321.241 24.4545 328.133 24.4545C335.909 24.4545 341.211 27.6369 343.862 33.6481C347.043 27.6369 353.582 24.4545 363.126 24.4545C376.38 24.4545 383.626 33.4713 383.626 48.4992V83.6822H366.483V50.6208C366.483 43.9024 363.302 39.6593 357.824 39.6593C352.168 39.6593 348.104 44.4328 348.104 51.1512V83.6822H330.961V50.6208C330.961 43.9024 327.78 39.6593 322.301 39.6593C316.823 39.6593 312.758 44.4328 312.758 51.1512V83.6822H295.969V83.6822Z" fill="black"/>
</g>
<defs>
<filter id="filter0_d_1832_52" x="-7.99436" y="-7.71048" width="99.8315" height="99.1842" filterUnits="userSpaceOnUse" color-interpolation-filters="sRGB">
<feFlood flood-opacity="0" result="BackgroundImageFix"/>
<feColorMatrix in="SourceAlpha" type="matrix" values="0 0 0 0 0 0 0 0 0 0 0 0 0 0 0 0 0 0 127 0" result="hardAlpha"/>
<feOffset/>
<feGaussianBlur stdDeviation="3.99718"/>
<feColorMatrix type="matrix" values="0 0 0 0 0.00392157 0 0 0 0 0.00392157 0 0 0 0 0.105882 0 0 0 0.1 0"/>
<feBlend mode="normal" in2="BackgroundImageFix" result="effect1_dropShadow_1832_52"/>
<feBlend mode="normal" in="SourceGraphic" in2="effect1_dropShadow_1832_52" result="shape"/>
</filter>
<clipPath id="clip0_1832_52">
<rect width="384" height="105.642" fill="white" transform="translate(0 0.283875)"/>
</clipPath>
</defs>
</svg>
